<?xml version="1.0" encoding="iso-8859-1"?>
<!-- Generator: Adobe Illustrator 19.0.0, SVG Export Plug-In . SVG Version: 6.00 Build 0)  -->
<svg version="1.1" id="Layer_1" xmlns="http://www.w3.org/2000/svg" xmlns:xlink="http://www.w3.org/1999/xlink" x="0px" y="0px"
	 viewBox="0 0 512 512" style="enable-background:new 0 0 512 512;" xml:space="preserve">
<g>
	<g>
		<path d="M374.318,481.999l-21.255-79.399l-83.668-110.126c-4.432,0.546-8.902,0.82-13.394,0.82c-4.491,0-8.962-0.274-13.394-0.82
			l-83.669,110.126l-21.255,79.399H99.255V512h313.489v-30.001H374.318z"/>
	</g>
</g>
<g>
	<g>
		<path d="M330.921,158.449l109.196-82.962L364.63,0l-82.962,109.196c-16.607-5.659-34.729-5.659-51.336,0L147.37,0L71.883,75.488
			l109.196,82.962c-5.66,16.607-5.66,34.729,0,51.335L71.883,292.746l75.488,75.488l82.962-109.197
			c8.303,2.83,16.984,4.256,25.668,4.256c8.683,0,17.363-1.426,25.668-4.256l82.962,109.197l75.488-75.488L330.92,209.784
			C336.58,193.178,336.58,175.057,330.921,158.449z M290.8,218.917c-19.187,19.188-50.41,19.187-69.599,0
			c-19.188-19.188-19.188-50.41,0-69.599c9.595-9.595,22.195-14.391,34.8-14.391c12.601,0,25.207,4.798,34.8,14.391
			C309.988,168.507,309.988,199.729,290.8,218.917z"/>
	</g>
</g>
<g>
	<g>
		<circle cx="256.006" cy="184.114" r="22.393"/>
	</g>
</g>
<g>
</g>
<g>
</g>
<g>
</g>
<g>
</g>
<g>
</g>
<g>
</g>
<g>
</g>
<g>
</g>
<g>
</g>
<g>
</g>
<g>
</g>
<g>
</g>
<g>
</g>
<g>
</g>
<g>
</g>
</svg>
